<?xml version="1.0" encoding="utf-8"?>
<!-- Generator: Adobe Illustrator 18.0.0, SVG Export Plug-In . SVG Version: 6.00 Build 0)  -->
<!DOCTYPE svg PUBLIC "-//W3C//DTD SVG 1.1//EN" "http://www.w3.org/Graphics/SVG/1.1/DTD/svg11.dtd">
<svg version="1.1" id="Layer_1" xmlns="http://www.w3.org/2000/svg" xmlns:xlink="http://www.w3.org/1999/xlink" x="0px" y="0px"
	 viewBox="0 0 600 600" enable-background="new 0 0 600 600" xml:space="preserve">
<path fill="#FFFFFF" stroke="#000000" stroke-width="5" stroke-miterlimit="10" d="M405.1,415H183.3c-14.5,0-26.8-12.2-26.8-26.8
	V205.5c0-14.5,12.2-26.8,26.8-26.8h221.8c14.5,0,26.8,12.2,26.8,26.8v182.8C432.6,402.8,420.4,415,405.1,415z"/>
<g>
	<g>
		<path fill="#333333" stroke="#000000" stroke-width="5" stroke-miterlimit="10" d="M282.7,216.2c0,51.2,0,102.5,0,153.7
			c0,14.5,22.9,14.5,22.9,0c0-51.2,0-102.5,0-153.7C305.7,201.6,282.7,201.6,282.7,216.2L282.7,216.2z"/>
	</g>
</g>
<g>
	<g>
		<path fill="#333333" stroke="#000000" stroke-width="5" stroke-miterlimit="10" d="M208.6,306.4c56.6,0,113.2,0,169,0
			c14.5,0,14.5-22.9,0-22.9c-56.6,0-113.2,0-169,0C194,283.5,194,306.4,208.6,306.4L208.6,306.4z"/>
	</g>
</g>
</svg>
