<?xml version="1.0" encoding="iso-8859-1"?>
<!-- Generator: Adobe Illustrator 18.0.0, SVG Export Plug-In . SVG Version: 6.00 Build 0)  -->
<!DOCTYPE svg PUBLIC "-//W3C//DTD SVG 1.1 Basic//EN" "http://www.w3.org/Graphics/SVG/1.1/DTD/svg11-basic.dtd">
<svg version="1.1" baseProfile="basic" id="Layer_1"
	 xmlns="http://www.w3.org/2000/svg" xmlns:xlink="http://www.w3.org/1999/xlink" x="0px" y="0px" viewBox="129 91 358 363"
	 xml:space="preserve">
<path style="fill:#FFFFFF;stroke:#000000;stroke-width:2;stroke-miterlimit:10;" d="M458.4,255.6"/>
<line style="fill:none;stroke:#000000;stroke-width:2;stroke-miterlimit:10;" x1="161.4" y1="222.6" x2="318.9" y2="244"/>
<line style="fill:none;stroke:#000000;stroke-width:2;stroke-miterlimit:10;" x1="319.9" y1="243" x2="464.7" y2="221.6"/>
<line style="fill:none;stroke:#000000;stroke-width:2;stroke-miterlimit:10;" x1="464.7" y1="221.6" x2="319.9" y2="193.9"/>
<line style="fill:none;stroke:#000000;stroke-width:2;stroke-miterlimit:10;" x1="319.9" y1="193.9" x2="162.4" y2="221.6"/>
<line style="fill:none;stroke:#000000;stroke-width:2;stroke-miterlimit:10;" x1="162.4" y1="222.9" x2="314.8" y2="246.8"/>
<line style="fill:none;stroke:#000000;stroke-width:2;stroke-miterlimit:10;" x1="314.8" y1="408" x2="162.4" y2="384.1"/>
<line style="fill:none;stroke:#000000;stroke-width:2;stroke-miterlimit:10;" x1="464.7" y1="222.9" x2="313.6" y2="246.8"/>
<line style="fill:none;stroke:#000000;stroke-width:2;stroke-miterlimit:10;" x1="312.3" y1="408" x2="464.7" y2="384.1"/>
<line style="fill:none;stroke:#000000;stroke-width:2;stroke-miterlimit:10;" x1="217.8" y1="234.2" x2="217.8" y2="392.9"/>
<line style="fill:none;stroke:#000000;stroke-width:2;stroke-miterlimit:10;" x1="253.1" y1="236.7" x2="255.6" y2="396.7"/>
<line style="fill:none;stroke:#000000;stroke-width:2;stroke-miterlimit:10;" x1="374" y1="236.7" x2="374" y2="399.2"/>
<line style="fill:none;stroke:#000000;stroke-width:2;stroke-miterlimit:10;" x1="410.5" y1="233" x2="410.5" y2="390.4"/>
<path style="fill:#FFFFFF;stroke:#000000;stroke-width:2;stroke-miterlimit:10;" d="M319.9,211.5c0,0-31.5-10.1-59.2-35.3
	s-40.3-56.7-40.3-56.7s31.5,10.1,59.2,35.3C307.3,181.3,319.9,211.5,319.9,211.5z"/>
<path style="fill:#FFFFFF;stroke:#000000;stroke-width:2;stroke-miterlimit:10;" d="M297.2,191.4c0,0-17.6-6.3-34-20.2
	c-15.1-13.9-22.7-31.5-22.7-31.5s17.6,6.3,34,20.2C289.6,173.8,297.2,191.4,297.2,191.4z"/>
<line style="fill:none;stroke:#000000;stroke-width:2;stroke-miterlimit:10;" x1="217.8" y1="229.2" x2="290.9" y2="214.1"/>
<line style="fill:none;stroke:#000000;stroke-width:2;stroke-miterlimit:10;" x1="254.4" y1="236.7" x2="302.2" y2="222.9"/>
<line style="fill:none;stroke:#000000;stroke-width:2;stroke-miterlimit:10;" x1="290.9" y1="214.1" x2="254.4" y2="207.8"/>
<line style="fill:none;stroke:#000000;stroke-width:2;stroke-miterlimit:10;" x1="316.1" y1="207.8" x2="352.6" y2="200.2"/>
<line style="fill:none;stroke:#000000;stroke-width:2;stroke-miterlimit:10;" x1="410.5" y1="229.2" x2="345" y2="216.6"/>
<line style="fill:none;stroke:#000000;stroke-width:2;stroke-miterlimit:10;" x1="345" y1="216.6" x2="376.5" y2="207.8"/>
<line style="fill:none;stroke:#000000;stroke-width:2;stroke-miterlimit:10;" x1="374" y1="236.7" x2="302.2" y2="222.9"/>
<path style="fill:#FFFFFF;stroke:#000000;stroke-width:2;stroke-miterlimit:10;" d="M318.6,211.5c0,0,31.5-10.1,57.9-34
	c26.4-25.2,39-54.2,39-54.2s-31.5,10.1-57.9,34C331.2,181.3,318.6,211.5,318.6,211.5z"/>
<path style="fill:#FFFFFF;stroke:#000000;stroke-width:2;stroke-miterlimit:10;" d="M340,192.6c0,0,17.6-5,32.7-20.2
	c15.1-15.1,22.7-31.5,22.7-31.5s-17.6,5-32.7,20.2C347.6,175,340,192.6,340,192.6z"/>
<line style="fill:none;stroke:#000000;stroke-width:2;stroke-miterlimit:10;" x1="311" y1="246.8" x2="311" y2="411.8"/>
<line style="fill:none;stroke:#000000;stroke-width:2;stroke-miterlimit:10;" x1="462.2" y1="221.6" x2="462.2" y2="386.6"/>
<line style="fill:none;stroke:#000000;stroke-width:2;stroke-miterlimit:10;" x1="159.9" y1="221.6" x2="159.9" y2="386.6"/>
</svg>
