<?xml version="1.0" encoding="iso-8859-1"?>
<!-- Generator: Adobe Illustrator 18.0.0, SVG Export Plug-In . SVG Version: 6.00 Build 0)  -->
<!DOCTYPE svg PUBLIC "-//W3C//DTD SVG 1.1 Basic//EN" "http://www.w3.org/Graphics/SVG/1.1/DTD/svg11-basic.dtd">
<svg version="1.1" baseProfile="basic" id="Layer_1"
	 xmlns="http://www.w3.org/2000/svg" xmlns:xlink="http://www.w3.org/1999/xlink" x="0px" y="0px"
	 viewBox="444.697 356.961 35.627 41.54" xml:space="preserve">
<line style="fill:none;stroke:#000000;stroke-width:2;stroke-miterlimit:10;" x1="42" y1="432" x2="43" y2="432"/>
<path style="fill:none;stroke:#000000;stroke-miterlimit:10;" d="M446.7,393c0,1.1,7.2,2,16.1,2"/>
<path style="fill:none;stroke:#000000;stroke-miterlimit:10;" d="M478.7,393c0,1.1-7.2,2-16.1,2"/>
<line style="fill:none;stroke:#000000;stroke-miterlimit:10;" x1="446.8" y1="393" x2="446.8" y2="393"/>
<line style="fill:none;stroke:#000000;stroke-miterlimit:10;" x1="446.7" y1="393" x2="458.9" y2="362.5"/>
<line style="fill:none;stroke:#000000;stroke-miterlimit:10;" x1="458.9" y1="362.4" x2="478.7" y2="393"/>
<path style="fill:none;stroke:#000000;stroke-miterlimit:10;" d="M458.8,362.6c-1.6,0.6-3.5,0.1-4.3-1.1c-0.6-1-0.1-2.1,1.1-2.6
	c1-0.4,2.3-0.1,2.8,0.7c0.4,0.6,0.1,1.4-0.7,1.7c-0.6,0.3-1.4,0.1-1.8-0.4c-0.3-0.4-0.1-0.9,0.5-1.1c0.4-0.2,0.9,0,1.1,0.3
	s0,0.6-0.3,0.7s-0.6,0-0.7-0.2s0-0.4,0.2-0.4"/>
<path style="fill:none;stroke:#000000;stroke-miterlimit:10;" d="M458.8,362.5c1.6,0.6,3.5,0.1,4.3-1.1c0.6-1,0.1-2.1-1.1-2.6
	c-1-0.4-2.3-0.1-2.8,0.7c-0.4,0.6-0.1,1.4,0.7,1.7c0.6,0.3,1.4,0.1,1.8-0.4c0.3-0.4,0.1-0.9-0.5-1.1c-0.4-0.2-0.9,0-1.1,0.3
	s0,0.6,0.3,0.7s0.6,0,0.7-0.2s0-0.4-0.2-0.4"/>
<path style="fill:none;stroke:#000000;stroke-miterlimit:10;" d="M458.6,363.4c-0.5,1.3-2.3,2-4,1.6c-1.4-0.3-2.1-1.4-1.7-2.4
	c0.3-0.8,1.5-1.3,2.6-1.1c0.9,0.2,1.4,0.9,1.1,1.6c-0.2,0.5-0.9,0.8-1.6,0.7c-0.6-0.1-0.9-0.6-0.7-1c0.1-0.3,0.6-0.5,1.1-0.4
	c0.4,0.1,0.6,0.4,0.5,0.6s-0.4,0.3-0.7,0.3c-0.2-0.1-0.4-0.2-0.3-0.4"/>
<path style="fill:none;stroke:#000000;stroke-miterlimit:10;" d="M459.2,362.5c0.1,1.4,1.6,2.4,3.4,2.3c1.4-0.1,2.5-1,2.4-2.1
	c-0.1-0.9-1-1.5-2.2-1.5c-0.9,0-1.6,0.6-1.6,1.3c0,0.6,0.7,1,1.4,1c0.6,0,1-0.4,1-0.8s-0.4-0.6-0.9-0.6c-0.4,0-0.7,0.3-0.6,0.5
	c0,0.2,0.3,0.4,0.6,0.4c0.2,0,0.4-0.2,0.4-0.3"/>
<polygon style="fill:none;stroke:#000000;stroke-miterlimit:10;" points="455.1,393.7 452.4,392.9 450,394.1 450.2,391.9 
	447.9,390.6 450.7,390 451.7,388 453.2,389.8 456.1,389.9 454.3,391.6 "/>
<polygon style="fill:none;stroke:#000000;stroke-miterlimit:10;" points="465.5,390.6 463.2,390.1 461.3,391.3 461.2,389.4 
	459.2,388.4 461.5,387.8 462.1,386 463.6,387.4 466,387.3 464.6,388.9 "/>
<polygon style="fill:none;stroke:#000000;stroke-miterlimit:10;" points="456.2,383.8 454.8,382.8 452.8,383.1 453.7,381.7 
	452.7,380.4 454.7,380.6 456,379.4 456.4,380.9 458.2,381.6 456.4,382.3 "/>
<polygon style="fill:none;stroke:#000000;stroke-miterlimit:10;" points="461.9,374.9 459.5,373.4 456.6,374 457.7,371.9 
	456.1,369.9 459.1,370.1 461.1,368.3 461.8,370.5 464.6,371.4 462,372.6 "/>
<polygon style="fill:none;stroke:#000000;stroke-miterlimit:10;" points="467.7,382 464.8,381.7 462.8,383.3 462.4,381.1 
	459.7,380.1 462.4,379.1 462.8,376.9 464.8,378.5 467.7,378.1 466.4,380.1 "/>
<polygon style="fill:none;stroke:#000000;stroke-miterlimit:10;" points="477.2,392.5 474.6,392.7 473.3,394.4 472.3,392.6 
	469.7,392.2 471.7,390.9 471.4,388.9 473.6,389.9 476,389.1 475.4,391.1 "/>
<path style="fill:none;stroke:#000000;stroke-miterlimit:10;" d="M446.6,393c0.1,1-0.3,1.7,1,2.2c1,0.4,2.2,0.5,3.3,0.7
	c3.9,0.5,7.8,0.7,11.8,0.7"/>
<path style="fill:none;stroke:#000000;stroke-miterlimit:10;" d="M478.7,394.5c0,1.1-7.2,2-16.1,2"/>
<line style="fill:none;stroke:#000000;stroke-miterlimit:10;" x1="479" y1="393" x2="479" y2="395"/>
</svg>
