<?xml version="1.0" encoding="iso-8859-1"?>
<!-- Generator: Adobe Illustrator 18.0.0, SVG Export Plug-In . SVG Version: 6.00 Build 0)  -->
<!DOCTYPE svg PUBLIC "-//W3C//DTD SVG 1.1 Basic//EN" "http://www.w3.org/Graphics/SVG/1.1/DTD/svg11-basic.dtd">
<svg version="1.1" baseProfile="basic" id="Layer_1"
	 xmlns="http://www.w3.org/2000/svg" xmlns:xlink="http://www.w3.org/1999/xlink" x="0px" y="0px"
	 viewBox="401.867 291.751 36.775 49.66" xml:space="preserve">
<g id="Layer_1_1_">
	<ellipse style="fill:#FFFFFF;stroke:#000000;stroke-miterlimit:10;" cx="411.8" cy="301.1" rx="7.3" ry="5.3"/>
	<path style="fill:#FFFFFF;stroke:#000000;stroke-miterlimit:10;" d="M416.7,329.6h-8c-1.5,0-2.7-1.2-2.7-2.7v-17.7
		c0-1.5,1.2-2.7,2.7-2.7h8c1.5,0,2.7,1.2,2.7,2.7v17.7C419.4,328.4,418.2,329.6,416.7,329.6z"/>
	<path style="fill:#FFFFFF;stroke:#000000;stroke-miterlimit:10;" d="M423.7,333.9h-8c-1.5,0-2.7-1.2-2.7-2.7v-17.7
		c0-1.5,1.2-2.7,2.7-2.7h8c1.5,0,2.7,1.2,2.7,2.7v17.7C426.4,332.7,425.2,333.9,423.7,333.9z"/>
	<ellipse style="fill:#FFFFFF;stroke:#000000;stroke-miterlimit:10;" cx="419.4" cy="305.5" rx="7.3" ry="5.3"/>
	<ellipse style="fill:#FFFFFF;stroke:#000000;stroke-miterlimit:10;" cx="427" cy="310.8" rx="7.3" ry="5.3"/>
	<path style="fill:#FFFFFF;stroke:#000000;stroke-miterlimit:10;" d="M431.3,338.7h-8c-1.5,0-2.7-1.2-2.7-2.7v-17.7
		c0-1.5,1.2-2.7,2.7-2.7h8c1.5,0,2.7,1.2,2.7,2.7V336C434,337.5,432.8,338.7,431.3,338.7z"/>
</g>
<g id="arms">
</g>
</svg>
